<svg width="32" height="32" viewBox="0 0 32 32" fill="none" xmlns="http://www.w3.org/2000/svg">
<rect width="32" height="32" rx="16" fill="#F8FAFF"/>
<g clip-path="url(#clip0_41_1034)">
<path fill-rule="evenodd" clip-rule="evenodd" d="M20.6667 10.1144C20.5066 10.1144 20.3481 10.1459 20.2002 10.2072C20.0523 10.2684 19.9179 10.3582 19.8047 10.4714L10.9299 19.3462L10.2835 21.7165L12.6538 21.0701L21.5286 12.1953C21.6418 12.0821 21.7316 11.9477 21.7928 11.7998C21.8541 11.6519 21.8856 11.4934 21.8856 11.3333C21.8856 11.1733 21.8541 11.0147 21.7928 10.8669C21.7316 10.719 21.6418 10.5846 21.5286 10.4714C21.4154 10.3582 21.281 10.2684 21.1331 10.2072C20.9852 10.1459 20.8267 10.1144 20.6667 10.1144ZM19.6899 8.97533C19.9996 8.84706 20.3315 8.78105 20.6667 8.78105C21.0018 8.78105 21.3337 8.84706 21.6434 8.97533C21.953 9.10359 22.2344 9.29159 22.4714 9.52859C22.7084 9.7656 22.8964 10.047 23.0247 10.3566C23.1529 10.6663 23.219 10.9982 23.219 11.3333C23.219 11.6685 23.1529 12.0004 23.0247 12.31C22.8964 12.6197 22.7084 12.9011 22.4714 13.1381L13.4714 22.1381C13.3894 22.2201 13.2873 22.2793 13.1754 22.3098L9.50874 23.3098C9.27794 23.3728 9.0311 23.3072 8.86193 23.1381C8.69276 22.9689 8.62721 22.7221 8.69016 22.4913L9.69016 18.8246C9.72068 18.7127 9.77989 18.6106 9.86193 18.5286L18.8619 9.52859C19.0989 9.29159 19.3803 9.10359 19.6899 8.97533Z" fill="#6871EE"/>
</g>
<defs>
<clipPath id="clip0_41_1034">
<rect width="16" height="16" fill="white" transform="translate(8 8)"/>
</clipPath>
</defs>
</svg>
