<svg width="32" height="32" viewBox="0 0 32 32" fill="none" xmlns="http://www.w3.org/2000/svg">
<rect width="32" height="32" rx="16" fill="#F8FAFF"/>
<path fill-rule="evenodd" clip-rule="evenodd" d="M9.33333 12C9.33333 11.6318 9.63181 11.3333 10 11.3333H22C22.3682 11.3333 22.6667 11.6318 22.6667 12C22.6667 12.3682 22.3682 12.6667 22 12.6667H10C9.63181 12.6667 9.33333 12.3682 9.33333 12Z" fill="#6871EE"/>
<path fill-rule="evenodd" clip-rule="evenodd" d="M14.6667 10C14.4899 10 14.3203 10.0702 14.1953 10.1953C14.0702 10.3203 14 10.4899 14 10.6667V11.3333H18V10.6667C18 10.4899 17.9298 10.3203 17.8047 10.1953C17.6797 10.0702 17.5101 10 17.3333 10H14.6667ZM19.3333 11.3333V10.6667C19.3333 10.1362 19.1226 9.62753 18.7475 9.25245C18.3725 8.87738 17.8638 8.66667 17.3333 8.66667H14.6667C14.1362 8.66667 13.6275 8.87738 13.2525 9.25245C12.8774 9.62753 12.6667 10.1362 12.6667 10.6667V11.3333H11.3333C10.9651 11.3333 10.6667 11.6318 10.6667 12V21.3333C10.6667 21.8638 10.8774 22.3725 11.2525 22.7475C11.6275 23.1226 12.1362 23.3333 12.6667 23.3333H19.3333C19.8638 23.3333 20.3725 23.1226 20.7475 22.7475C21.1226 22.3725 21.3333 21.8638 21.3333 21.3333V12C21.3333 11.6318 21.0349 11.3333 20.6667 11.3333H19.3333ZM12 12.6667V21.3333C12 21.5101 12.0702 21.6797 12.1953 21.8047C12.3203 21.9298 12.4899 22 12.6667 22H19.3333C19.5101 22 19.6797 21.9298 19.8047 21.8047C19.9298 21.6797 20 21.5101 20 21.3333V12.6667H12Z" fill="#6871EE"/>
<path fill-rule="evenodd" clip-rule="evenodd" d="M14.6667 14.6667C15.0349 14.6667 15.3333 14.9651 15.3333 15.3333V19.3333C15.3333 19.7015 15.0349 20 14.6667 20C14.2985 20 14 19.7015 14 19.3333V15.3333C14 14.9651 14.2985 14.6667 14.6667 14.6667Z" fill="#6871EE"/>
<path fill-rule="evenodd" clip-rule="evenodd" d="M17.3333 14.6667C17.7015 14.6667 18 14.9651 18 15.3333V19.3333C18 19.7015 17.7015 20 17.3333 20C16.9651 20 16.6667 19.7015 16.6667 19.3333V15.3333C16.6667 14.9651 16.9651 14.6667 17.3333 14.6667Z" fill="#6871EE"/>
</svg>
